<?xml version="1.0" standalone="no"?>
<!DOCTYPE svg PUBLIC "-//W3C//DTD SVG 20010904//EN"
 "http://www.w3.org/TR/2001/REC-SVG-20010904/DTD/svg10.dtd">
<svg version="1.0" xmlns="http://www.w3.org/2000/svg"
 width="876.000000pt" height="876.000000pt" viewBox="0 0 876.000000 876.000000"
 preserveAspectRatio="xMidYMid meet">
<metadata>
Created by potrace 1.11, written by Peter Selinger 2001-2013
</metadata>
<g transform="translate(0.000000,876.000000) scale(0.100000,-0.100000)"
fill="#000000" stroke="none">
<path d="M4130 8086 c-108 -61 -2483 -1405 -2808 -1589 -117 -66 -209 -123
-205 -127 4 -4 254 -150 555 -324 l547 -316 623 343 c343 189 797 439 1011
557 l387 213 0 648 c0 357 -4 649 -8 649 -4 0 -50 -24 -102 -54z"/>
<path d="M4512 7490 l3 -651 150 -83 c245 -134 754 -414 1327 -729 l537 -296
550 317 c303 174 549 322 547 327 -1 6 -43 33 -92 61 -837 475 -2998 1696
-3010 1701 -12 4 -14 -90 -12 -647z"/>
<path d="M3810 6309 c-311 -171 -653 -359 -760 -418 -107 -59 -277 -152 -377
-207 -101 -54 -181 -103 -180 -108 2 -5 32 -26 67 -46 36 -20 457 -263 935
-539 771 -446 873 -502 895 -494 14 5 421 238 905 518 484 280 899 520 923
533 35 20 41 27 30 37 -7 6 -224 128 -483 270 -258 142 -559 307 -667 366
-109 60 -289 159 -400 220 -112 62 -230 127 -263 145 l-61 33 -564 -310z"/>
<path d="M980 4335 l0 -1806 23 12 c17 10 523 302 1045 603 l52 30 0 1161 0
1161 -157 91 c-771 446 -911 527 -935 539 l-28 15 0 -1806z"/>
<path d="M7203 5818 l-553 -321 0 -1162 0 -1163 88 -50 c48 -27 298 -172 556
-321 258 -149 471 -271 473 -271 1 0 3 812 3 1805 0 993 -3 1805 -7 1804 -5 0
-257 -145 -560 -321z"/>
<path d="M2360 4316 l0 -1023 543 -298 c298 -164 650 -358 782 -431 132 -73
310 -171 395 -218 85 -47 158 -82 163 -77 4 4 6 454 5 1000 l-3 993 -295 170
c-162 94 -502 290 -755 436 -253 146 -540 312 -638 369 -98 56 -182 103 -187
103 -6 0 -10 -374 -10 -1024z"/>
<path d="M6215 5251 c-82 -48 -240 -140 -350 -203 -110 -63 -420 -243 -690
-398 -269 -156 -532 -307 -582 -337 l-93 -54 0 -994 c0 -547 3 -996 8 -998 4
-3 115 55 247 127 132 73 554 305 938 516 l697 383 0 1024 c0 812 -3 1023 -12
1023 -7 -1 -80 -40 -163 -89z"/>
<path d="M1763 2676 c-315 -182 -573 -333 -573 -336 1 -3 146 -87 323 -186
330 -186 2133 -1206 2492 -1410 110 -62 208 -116 218 -120 16 -6 17 28 15 667
l-3 674 -882 485 c-485 267 -912 501 -950 521 l-68 37 -572 -332z"/>
<path d="M5448 2481 l-937 -516 -1 -674 c0 -613 1 -673 16 -667 9 3 253 140
543 304 289 164 963 545 1496 847 534 301 975 553 982 559 9 8 -133 95 -556
339 -312 180 -576 327 -587 326 -10 -1 -441 -234 -956 -518z"/>
</g>
</svg>
